<?xml version="1.0" encoding="UTF-8" standalone="no"?><!-- Generator: Gravit.io --><svg xmlns="http://www.w3.org/2000/svg" xmlns:xlink="http://www.w3.org/1999/xlink" style="isolation:isolate" viewBox="0 0 400 500" width="400pt" height="500pt"><defs><clipPath id="_clipPath_G0qTpqoMUCyCA56ROn7PS78Lwgr6sj65"><rect width="400" height="500"/></clipPath></defs><g clip-path="url(#_clipPath_G0qTpqoMUCyCA56ROn7PS78Lwgr6sj65)"><rect width="400" height="500" style="fill:rgb(0,0,0)" fill-opacity="0"/><defs><filter id="2TvPCydvo5AN5qppzkBSXqmsRBAGDjWR" x="-200%" y="-200%" width="400%" height="400%" filterUnits="objectBoundingBox" color-interpolation-filters="sRGB"><feGaussianBlur xmlns="http://www.w3.org/2000/svg" in="SourceGraphic" stdDeviation="2.146804531419514"/><feOffset xmlns="http://www.w3.org/2000/svg" dx="5" dy="5" result="pf_100_offsetBlur"/><feFlood xmlns="http://www.w3.org/2000/svg" flood-color="#159A9C" flood-opacity="0.1"/><feComposite xmlns="http://www.w3.org/2000/svg" in2="pf_100_offsetBlur" operator="in" result="pf_100_dropShadow"/><feBlend xmlns="http://www.w3.org/2000/svg" in="SourceGraphic" in2="pf_100_dropShadow" mode="normal"/></filter></defs><g filter="url(#2TvPCydvo5AN5qppzkBSXqmsRBAGDjWR)"><path d="M 48.485 245.66 L 114.665 245.66 C 123.294 245.66 130.3 252.666 130.3 261.296 L 130.3 445.454 C 130.3 454.084 123.294 461.09 114.665 461.09 L 48.485 461.09 C 39.856 461.09 32.85 454.084 32.85 445.454 L 32.85 261.296 C 32.85 252.666 39.856 245.66 48.485 245.66 Z" style="stroke:none;fill:#009688;stroke-miterlimit:10;"/></g><defs><filter id="itDmWvqO3qjd5iaBQdADyyJG68l860wV" x="-200%" y="-200%" width="400%" height="400%" filterUnits="objectBoundingBox" color-interpolation-filters="sRGB"><feGaussianBlur xmlns="http://www.w3.org/2000/svg" in="SourceGraphic" stdDeviation="2.146804531419514"/><feOffset xmlns="http://www.w3.org/2000/svg" dx="5" dy="5" result="pf_100_offsetBlur"/><feFlood xmlns="http://www.w3.org/2000/svg" flood-color="#159A9C" flood-opacity="0.1"/><feComposite xmlns="http://www.w3.org/2000/svg" in2="pf_100_offsetBlur" operator="in" result="pf_100_dropShadow"/><feBlend xmlns="http://www.w3.org/2000/svg" in="SourceGraphic" in2="pf_100_dropShadow" mode="normal"/></filter></defs><g filter="url(#itDmWvqO3qjd5iaBQdADyyJG68l860wV)"><path d="M 176.91 134.53 L 235.86 134.53 C 246.484 134.53 255.11 143.156 255.11 153.781 L 255.11 441.839 C 255.11 452.464 246.484 461.09 235.86 461.09 L 176.91 461.09 C 166.286 461.09 157.66 452.464 157.66 441.839 L 157.66 153.781 C 157.66 143.156 166.286 134.53 176.91 134.53 Z" style="stroke:none;fill:#009688;stroke-miterlimit:10;"/></g><defs><filter id="ZaqeUauKSIzMWA1YTdxg7KgX3qMJVezg" x="-200%" y="-200%" width="400%" height="400%" filterUnits="objectBoundingBox" color-interpolation-filters="sRGB"><feGaussianBlur xmlns="http://www.w3.org/2000/svg" in="SourceGraphic" stdDeviation="2.146804531419514"/><feOffset xmlns="http://www.w3.org/2000/svg" dx="5" dy="5" result="pf_100_offsetBlur"/><feFlood xmlns="http://www.w3.org/2000/svg" flood-color="#159A9C" flood-opacity="0.1"/><feComposite xmlns="http://www.w3.org/2000/svg" in2="pf_100_offsetBlur" operator="in" result="pf_100_dropShadow"/><feBlend xmlns="http://www.w3.org/2000/svg" in="SourceGraphic" in2="pf_100_dropShadow" mode="normal"/></filter><linearGradient id="_lgradient_4" x1="0.5093027059173365" y1="0.6419594873914841" x2="0.8881829791776272" y2="0.6254989877147796"><stop offset="0%" style="stop-color:#009688"/><stop offset="97.5%" style="stop-color:#24BDB0"/></linearGradient></defs><g filter="url(#ZaqeUauKSIzMWA1YTdxg7KgX3qMJVezg)"><path d="M 304.316 40.5 L 358.074 40.5 C 370.131 40.5 379.92 50.289 379.92 62.347 L 379.92 439.243 C 379.92 451.301 370.131 461.09 358.074 461.09 L 304.316 461.09 C 292.259 461.09 282.47 451.301 282.47 439.243 L 282.47 62.347 C 282.47 50.289 292.259 40.5 304.316 40.5 Z" style="stroke:none;fill:url(#_lgradient_4);stroke-miterlimit:10;"/></g></g></svg>