<?xml version="1.0"?>
<svg fill="none" height="40" viewBox="0 0 24 24" width="40" xmlns="http://www.w3.org/2000/svg">
    <path clip-rule="evenodd" d="M3 18.5C2.72386 18.5 2.5 18.7239 2.5 19C2.5 19.2761 2.72386 19.5 3 19.5H21C21.2761 19.5 21.5 19.2761 21.5 19C21.5 18.7239 21.2761 18.5 21 18.5H3ZM3 4.5C2.72386 4.5 2.5 4.72386 2.5 5C2.5 5.27614 2.72386 5.5 3 5.5H21C21.2761 5.5 21.5 5.27614 21.5 5C21.5 4.72386 21.2761 4.5 21 4.5H3ZM3.5 13C3.5 14.3807 4.61929 15.5 6 15.5H18C19.3807 15.5 20.5 14.3807 20.5 13V11C20.5 9.61929 19.3807 8.5 18 8.5H6C4.61929 8.5 3.5 9.61929 3.5 11V13Z" fill="#159A9C" fill-rule="evenodd" />
</svg>